<svg width="0" height="0" class="hidden">
  <symbol xmlns="http://www.w3.org/2000/svg" viewBox="0 0 24 24" id="icon-collect">
    <g id="SVGRepo_bgCarrier" stroke-width="0"></g>
    <g id="SVGRepo_tracerCarrier" stroke-linecap="round" stroke-linejoin="round"></g>
    <g id="SVGRepo_iconCarrier">
      <path clip-rule="evenodd" d="M21 11.0975V16.0909C21 19.1875 21 20.7358 20.2659 21.4123C19.9158 21.735 19.4739 21.9377 19.0031 21.9915C18.016 22.1045 16.8633 21.0849 14.5578 19.0458C13.5388 18.1445 13.0292 17.6938 12.4397 17.5751C12.1494 17.5166 11.8506 17.5166 11.5603 17.5751C10.9708 17.6938 10.4612 18.1445 9.44216 19.0458C7.13673 21.0849 5.98402 22.1045 4.99692 21.9915C4.52615 21.9377 4.08421 21.735 3.73411 21.4123C3 20.7358 3 19.1875 3 16.0909V11.0975C3 6.80891 3 4.6646 4.31802 3.3323C5.63604 2 7.75736 2 12 2C16.2426 2 18.364 2 19.682 3.3323C21 4.6646 21 6.80891 21 11.0975ZM8.25 6C8.25 5.58579 8.58579 5.25 9 5.25H15C15.4142 5.25 15.75 5.58579 15.75 6C15.75 6.41421 15.4142 6.75 15 6.75H9C8.58579 6.75 8.25 6.41421 8.25 6Z" stroke="#000" stroke-width="1.5"></path>
    </g>
  </symbol>
  <symbol fill="none" xmlns="http://www.w3.org/2000/svg" viewBox="0 0 24 24" id="icon-add">
    <g id="SVGRepo_bgCarrier" stroke-width="0"></g>
    <g id="SVGRepo_tracerCarrier" stroke-linecap="round" stroke-linejoin="round"></g>
    <g id="SVGRepo_iconCarrier">
      <path d="M2 12C2 7.28595 2 4.92893 3.46447 3.46447C4.92893 2 7.28595 2 12 2C16.714 2 19.0711 2 20.5355 3.46447C22 4.92893 22 7.28595 22 12C22 16.714 22 19.0711 20.5355 20.5355C19.0711 22 16.714 22 12 22C7.28595 22 4.92893 22 3.46447 20.5355C2 19.0711 2 16.714 2 12Z" stroke="#000" stroke-width="1.5"></path>
      <path d="M15 12L12 12M12 12L9 12M12 12L12 9M12 12L12 15" stroke="#000" stroke-width="1.5" stroke-linecap="round"></path>
    </g>
  </symbol>
  <symbol version="1.1" xmlns="http://www.w3.org/2000/svg" xmlns:xlink="http://www.w3.org/1999/xlink" viewBox="0 0 24 24" id="icon-comment">
    <title>ic_fluent_comment_24_filled</title>
    <desc>Created with Sketch.</desc>
    <g id="ðŸ”-Product-Icons" stroke-width="1" fill-rule="evenodd">
      <g id="ic_fluent_comment_24_filled" stroke="#000" stroke-width="1.5">
        <path d="M5.25,18 C3.45507456,18 2,16.5449254 2,14.75 L2,6.25 C2,4.45507456 3.45507456,3 5.25,3 L18.75,3 C20.5449254,3 22,4.45507456 22,6.25 L22,14.75 C22,16.5449254 20.5449254,18 18.75,18 L12.9648041,18 L7.57814462,21.817289 C7.12751654,22.1365895 6.50336615,22.0301274 6.18406569,21.5794993 C6.06431649,21.4104975 6,21.2084814 6,21.0015546 L5.9991999,18 L5.25,18 Z" id="ðŸŽ¨-Color"></path>
      </g>
    </g>
  </symbol>
  <symbol fill="none" xmlns="http://www.w3.org/2000/svg" viewBox="0 0 24 24" id="icon-cross">
    <path d="M19 5L5 19M5.00001 5L19 19" stroke="#000000" stroke-width="1.5" stroke-linecap="round" stroke-linejoin="round"></path>
  </symbol>
  <symbol xmlns="http://www.w3.org/2000/svg" viewBox="0 0 24 24" id="icon-heart">
    <g id="SVGRepo_bgCarrier" stroke-width="0"></g>
    <g id="SVGRepo_tracerCarrier" stroke-linecap="round" stroke-linejoin="round"></g>
    <g id="SVGRepo_iconCarrier">
      <path d="M8.10627 18.2468C5.29819 16.0833 2 13.5422 2 9.1371C2 4.27416 7.50016 0.825464 12 5.50063L14 7.49928C14.2929 7.79212 14.7678 7.79203 15.0607 7.49908C15.3535 7.20614 15.3534 6.73127 15.0605 6.43843L13.1285 4.50712C17.3685 1.40309 22 4.67465 22 9.1371C22 13.5422 18.7018 16.0833 15.8937 18.2468C15.6019 18.4717 15.3153 18.6925 15.0383 18.9109C14 19.7294 13 20.5 12 20.5C11 20.5 10 19.7294 8.96173 18.9109C8.68471 18.6925 8.39814 18.4717 8.10627 18.2468Z" stroke-width="1.5"></path>
    </g>
  </symbol>
  <symbol fill="none" xmlns="http://www.w3.org/2000/svg" viewBox="0 0 24 24" id="icon-home">
    <g id="SVGRepo_bgCarrier" stroke-width="0"></g>
    <g id="SVGRepo_tracerCarrier" stroke-linecap="round" stroke-linejoin="round"></g>
    <g id="SVGRepo_iconCarrier">
      <rect width="24" height="24" fill="white"></rect>
      <path fill-rule="evenodd" clip-rule="evenodd" d="M13.9931 3.43368C12.8564 2.42331 11.1436 2.42331 10.0069 3.43368L2.33565 10.2526C1.92286 10.6195 1.88568 11.2516 2.2526 11.6644C2.61952 12.0771 3.25159 12.1143 3.66437 11.7474L4.00001 11.4491L4.00001 17.0658C3.99996 17.9523 3.99992 18.7161 4.08215 19.3278C4.17028 19.9833 4.36903 20.6117 4.87869 21.1213C5.38835 21.631 6.0167 21.8297 6.67222 21.9179C7.28388 22.0001 8.04769 22 8.93418 22H15.0658C15.9523 22 16.7161 22.0001 17.3278 21.9179C17.9833 21.8297 18.6117 21.631 19.1213 21.1213C19.631 20.6117 19.8297 19.9833 19.9179 19.3278C20.0001 18.7161 20.0001 17.9523 20 17.0659L20 11.4491L20.3356 11.7474C20.7484 12.1143 21.3805 12.0771 21.7474 11.6644C22.1143 11.2516 22.0772 10.6195 21.6644 10.2526L13.9931 3.43368ZM12 16C11.4477 16 11 16.4477 11 17V19C11 19.5523 10.5523 20 10 20C9.44772 20 9 19.5523 9 19V17C9 15.3431 10.3431 14 12 14C13.6569 14 15 15.3431 15 17V19C15 19.5523 14.5523 20 14 20C13.4477 20 13 19.5523 13 19V17C13 16.4477 12.5523 16 12 16Z" fill="#000"></path>
    </g>
  </symbol>
  <symbol id="icon-image-upload" xmlns="http://www.w3.org/2000/svg" viewBox="0 0 48 48">
    <defs></defs>
    <g id="c">
      <path id="d" d="m32.7891,5.5H7.5c-1.1046,0-2,.8954-2,2v33c0,1.1046.8954,2,2,2h33c1.1046,0,2-.8954,2-2V14.0625"></path>
      <path id="e" d="m42.8918,3.4917h-9.3202c-.312,0-.5649.2529-.5649.5649v9.3202c0,.312.2529.5649.5649.5649h9.3202c.312,0,.5649-.2529.5649-.5649V4.0566c0-.312-.2529-.5649-.5649-.5649Z"></path>
      <path id="f" d="m5.5151,35.5209s4.0371-2.8561,6.2361-3.9669c1.5351-.7754,3.0978-1.9963,4.8122-1.8605,1.85.1465,3.0505,2.2161,4.8121,2.7997.8317.2756,1.7439.4164,2.6118.2962,1.0368-.1437,2.0194-.6333,2.9065-1.1888,2.2286-1.3957,3.6603-3.8468,5.8746-5.2652.7908-.5065,1.6472-1.0751,2.5853-1.1195,2.4131-.1142,4.5188,1.9857,6.8927,2.239"></path>
      <circle id="g" cx="13.9796" cy="13.2526" r="3.9659"></circle>
      <g id="h">
        <path id="i" d="m36.4118,8.2098l1.8177-1.8177v4.6599"></path>
        <path id="j" d="m40.0517,8.1989l-1.8177-1.8177v4.6599"></path>
      </g>
    </g>
  </symbol>
  <symbol fill="#000000" xmlns="http://www.w3.org/2000/svg" viewBox="0 0 512 512" id="icon-posts">
    <title>ionicons-v5-h</title>
    <rect x="48" y="48" width="112" height="112" rx="8" ry="8"></rect>
    <rect x="200" y="48" width="112" height="112" rx="8" ry="8"></rect>
    <rect x="352" y="48" width="112" height="112" rx="8" ry="8"></rect>
    <rect x="48" y="200" width="112" height="112" rx="8" ry="8"></rect>
    <rect x="200" y="200" width="112" height="112" rx="8" ry="8"></rect>
    <rect x="352" y="200" width="112" height="112" rx="8" ry="8"></rect>
    <rect x="48" y="352" width="112" height="112" rx="8" ry="8"></rect>
    <rect x="200" y="352" width="112" height="112" rx="8" ry="8"></rect>
    <rect x="352" y="352" width="112" height="112" rx="8" ry="8"></rect>
  </symbol>
  <symbol fill="none" xmlns="http://www.w3.org/2000/svg" viewBox="0 0 24 24" id="icon-search">
    <path d="M11 6C13.7614 6 16 8.23858 16 11M16.6588 16.6549L21 21M19 11C19 15.4183 15.4183 19 11 19C6.58172 19 3 15.4183 3 11C3 6.58172 6.58172 3 11 3C15.4183 3 19 6.58172 19 11Z" stroke="#000000" stroke-width="2" stroke-linecap="round" stroke-linejoin="round"></path>
  </symbol>
</svg>